<?xml version="1.0" encoding="utf-8"?>
<!-- Generator: Adobe Illustrator 16.0.0, SVG Export Plug-In . SVG Version: 6.00 Build 0)  -->
<!DOCTYPE svg PUBLIC "-//W3C//DTD SVG 1.1//EN" "http://www.w3.org/Graphics/SVG/1.1/DTD/svg11.dtd">
<svg version="1.1" id="Capa_1" xmlns="http://www.w3.org/2000/svg" xmlns:xlink="http://www.w3.org/1999/xlink" x="0px" y="0px"
	 width="432px" height="269.51px" viewBox="0 0 432 269.51" enable-background="new 0 0 432 269.51" xml:space="preserve">
<g>
	<path fill="#FFFFFF" d="M350.983,133.389c-38.112-3.082-80.655-2.972-117.16,1.816v8.539c0,0,30.016-3.152,117.16,5.107V133.389z"
		/>
	<path fill="#FFFFFF" d="M334.061,76.924l-13.596-7.039l-86.617,8.799l0.005-8.263L136.917,0h-27.479v74.215
		c13.796,1.103,26.295,2.585,37.58,4.303V62.641l3.616,1.667l0.012,14.788c1.1,0.177,2.223,0.349,3.298,0.529l-0.021-13.801
		l3.356,1.547l0.03,12.845c1.019,0.179,2.064,0.355,3.062,0.538l-0.036-11.974l3.123,1.438l0.04,11.133
		c3.431,0.657,6.736,1.33,9.892,2.021l-0.05-8.598l2.674,1.232l0.052,7.961c0.82,0.187,1.644,0.371,2.445,0.558l-0.052-7.392
		l2.507,1.156l0.052,6.835c0.765,0.185,1.546,0.368,2.294,0.554l-0.052-6.331l2.356,1.085l0.051,5.849
		c2.616,0.67,5.137,1.344,7.524,2.019l-0.045-4.396l2.057,0.947l0.043,4.043c0.627,0.183,1.276,0.365,1.887,0.548l-0.042-3.72
		l1.944,0.896l0.04,3.417c0.595,0.183,1.205,0.365,1.783,0.547l-0.037-3.141l1.839,0.849l0.036,2.881
		c2.074,0.667,4.067,1.33,5.921,1.979l-0.03-2.127l1.632,0.752l0.027,1.96c0.502,0.18,1.017,0.36,1.501,0.539l-0.026-1.808
		l1.552,0.715l0.024,1.671c0.479,0.182,0.966,0.362,1.428,0.539l-0.023-1.551l1.476,0.682l0.023,1.446
		c1.723,0.679,3.325,1.333,4.783,1.956l-0.021-1.196l1.326,0.61l0.019,1.16c0.422,0.185,0.828,0.365,1.226,0.543l-0.021-1.138
		l1.268,0.583l0.019,1.128c0.41,0.188,0.789,0.367,1.17,0.547l-0.02-1.135l1.212,0.558l0.02,1.154
		c2.899,1.406,4.806,2.475,5.807,3.064c-7.031-3.063-47.607-19.089-137.359-24.218v23.429c38.807,1.499,90.153,2.37,138.203,17.076
		l0.001-0.009c0.407-0.196,3.486-1.643,9.597-3.782l-0.025-13.012l1.649-0.129l0.034,12.567c0.502-0.171,1.039-0.348,1.576-0.524
		l-0.04-12.165l1.673-0.13l0.047,11.749c0.521-0.167,1.046-0.335,1.598-0.507l-0.054-11.366l1.696-0.132l0.058,10.976
		c1.829-0.557,3.779-1.132,5.909-1.727l-0.073-9.708l1.75-0.138l0.076,9.366c0.556-0.151,1.092-0.301,1.666-0.454l-0.078-9.042
		l1.774-0.138l0.081,8.716c0.557-0.145,1.116-0.29,1.689-0.436l-0.083-8.411l1.8-0.141l0.085,8.097
		c1.982-0.494,4.083-0.993,6.263-1.495l-0.09-7.089l1.857-0.146l0.092,6.807c0.579-0.131,1.176-0.261,1.769-0.392l-0.092-6.552
		l1.886-0.147l0.092,6.291c0.602-0.129,1.18-0.259,1.793-0.388l-0.092-6.043l1.912-0.149l0.093,5.8
		c2.139-0.44,4.362-0.878,6.656-1.315l-0.093-5.002l1.978-0.154l0.092,4.782c0.629-0.117,1.242-0.234,1.882-0.35l-0.093-4.579
		l2.008-0.156l0.092,4.381c0.633-0.112,1.265-0.224,1.909-0.336l-0.093-4.194l2.038-0.157l0.091,3.996
		c2.293-0.389,4.661-0.771,7.09-1.149l-0.09-3.4l2.108-0.164l0.089,3.247c0.664-0.1,1.331-0.2,2.005-0.301l-0.087-3.102l2.142-0.167
		l0.086,2.946c0.663-0.095,1.363-0.187,2.036-0.281l-0.086-2.824l2.175-0.169l0.085,2.693c6.023-0.825,12.371-1.613,19.14-2.338
		L334.061,76.924z M147.017,44.298V17.597l3.581,2.518l0.021,26.198L147.017,44.298z M153.896,48.146l-0.04-25.743l3.326,2.337
		l0.057,25.275L153.896,48.146z M160.285,51.72l-0.074-24.851l3.096,2.175l0.089,24.416L160.285,51.72z M173.247,58.971
		l-0.135-23.036l2.656,1.866l0.146,22.662L173.247,58.971z M178.352,61.827l-0.156-22.319l2.49,1.75l0.166,21.968L178.352,61.827z
		 M183.141,64.506l-0.175-21.646l2.341,1.645l0.183,21.316L183.141,64.506z M193.003,70.023l-0.208-20.257l2.047,1.439l0.214,19.966
		L193.003,70.023z M196.941,72.226l-0.219-19.698l1.935,1.358l0.224,19.426L196.941,72.226z M200.664,74.309l-0.229-19.173
		l1.832,1.287l0.233,18.914L200.664,74.309z M208.418,78.647l-0.247-18.074l1.627,1.143l0.25,17.843L208.418,78.647z
		 M211.548,80.398l-0.253-17.631l1.547,1.088l0.255,17.409L211.548,80.398z M214.525,82.063l-0.258-17.206l1.472,1.034L216,82.889
		L214.525,82.063z M220.782,85.564l-0.269-16.317l1.323,0.929l0.269,16.129L220.782,85.564z M223.329,86.989l-0.271-15.954
		l1.265,0.888l0.271,15.774L223.329,86.989z M225.764,88.351l-0.272-15.606l1.209,0.85l0.273,15.435L225.764,88.351z
		 M245.271,95.202l-1.641,0.155l0.329-11.476l1.626-0.192L245.271,95.202z M248.494,94.897l-1.663,0.156l0.3-11.548l1.648-0.195
		L248.494,94.897z M251.76,94.588l-1.686,0.16l0.271-11.623l1.67-0.198L251.76,94.588z M259.355,93.87l-1.738,0.165l0.2-11.796
		l1.722-0.204L259.355,93.87z M262.771,93.547l-1.763,0.167l0.168-11.873l1.746-0.207L262.771,93.547z M266.235,93.22l-1.788,0.169
		l0.135-11.952l1.77-0.21L266.235,93.22z M274.295,92.458l-1.845,0.174l0.055-12.135l1.827-0.216L274.295,92.458z M276.051,92.292
		l0.02-12.217l1.853-0.22v12.26L276.051,92.292z M279.703,91.947l-0.019-12.302l1.88-0.223l0.037,12.344L279.703,91.947z
		 M288.209,91.143l-0.107-12.494l1.942-0.23l0.128,12.539L288.209,91.143z M292.04,90.781l-0.149-12.582l1.971-0.234l0.171,12.627
		L292.04,90.781z M295.927,90.413l-0.191-12.67l2-0.237l0.213,12.716L295.927,90.413z M304.986,89.557l-0.293-12.877l2.067-0.245
		l0.317,12.925L304.986,89.557z M309.068,89.171l-0.34-12.969l2.1-0.249l0.364,13.017L309.068,89.171z M313.213,88.779
		l-0.387-13.063l2.131-0.253l0.412,13.112L313.213,88.779z"/>
	<path fill="#EB0029" d="M363.248,103.823c-92.263,5.617-129.418,16.268-129.418,16.268l-0.012,6.346
		c-52.274-13.51-117.983-9.438-160.105-4.45v26.853c100.62-18.854,160.114-11.603,160.114-11.603v-6.38
		c42.028-9.843,80.277-10.922,129.421-11.228V103.823z"/>
	<path fill="#FFFFFF" d="M28.542,203.632c-0.347,1.954-1.39,6.953-1.817,8.371H3.165v-1.872c4.172-0.321,4.681-0.643,4.681-4.813
		v-19.44c0-4.226-0.509-4.548-4.386-4.816v-1.872h14.387v1.872c-3.931,0.269-4.386,0.591-4.386,4.816v19.494
		c0,2.458,0.241,3.448,1.284,3.901c0.856,0.429,2.353,0.536,4.091,0.536c2.246,0,4.011-0.268,5.161-1.58
		c0.856-1.039,1.792-2.644,2.621-5.052L28.542,203.632z"/>
	<path fill="#FFFFFF" d="M33.141,212.003v-1.872c3.823-0.321,4.332-0.643,4.332-4.813v-19.44c0-4.227-0.509-4.548-4.332-4.815
		v-1.872h14.225v1.872c-3.823,0.268-4.278,0.589-4.278,4.815v19.44c0,4.223,0.455,4.491,4.278,4.813v1.872H33.141z"/>
	<path fill="#FFFFFF" d="M85.55,198.205c-2.674,0.481-2.942,0.64-2.942,3.822v4.12c0,1.736,0.053,3.395,0.321,4.813
		c-3.076,0.722-7.167,1.765-11.178,1.765c-11.231,0-18.345-6.792-18.345-16.767c0-11.659,9.147-17.516,19.228-17.516
		c3.984,0,7.728,0.961,9.466,1.419c0.161,1.736,0.454,4.438,0.776,8.153l-1.926,0.375c-1.31-5.963-4.866-7.835-9.199-7.835
		c-6.472,0-11.765,5.427-11.765,14.574c0,7.566,3.877,15.456,12.38,15.456c1.258,0,2.46-0.269,3.262-0.723
		c0.829-0.481,1.285-1.204,1.285-2.939v-4.495c0-3.448-0.295-3.794-5.322-4.223v-1.872H85.55V198.205z"/>
	<path fill="#FFFFFF" d="M109.588,212.004v-1.872c2.967-0.43,3.289-0.858,2.62-2.941c-0.587-1.604-1.364-3.905-2.193-6.153h-9.947
		c-0.615,1.605-1.256,3.398-1.819,5.429c-0.829,2.7-0.588,3.236,3.023,3.666v1.872H90.041v-1.872
		c3.289-0.43,3.931-0.805,5.588-5.081l10.081-26.019l2.355-0.59c3.048,8.529,6.283,17.997,9.466,26.501
		c1.524,4.33,2.192,4.813,5.481,5.188v1.872H109.588z M105.202,186.653h-0.161c-1.416,3.93-2.779,7.885-4.171,11.712h8.289
		L105.202,186.653z"/>
	<path fill="#FFFFFF" d="M168.278,212.003v-1.872c3.959-0.429,4.12-0.643,4.066-5.456l-0.107-19.946h-0.161l-11.285,26.899h-1.497
		L149,185.342h-0.215l-0.587,13.745c-0.242,4.198-0.242,6.393-0.108,8.05c0.161,2.244,1.256,2.673,4.6,2.94v1.926h-12.06v-1.926
		c2.78-0.268,3.716-0.857,4.064-2.833c0.322-1.658,0.588-4.066,0.963-9.093l0.776-10.512c0.426-5.803,0.107-6.202-4.279-6.577
		v-1.872h9.708l10.027,23.13l10.295-23.13h9.627v1.872c-4.173,0.375-4.332,0.536-4.226,5.026l0.455,18.586
		c0.107,4.813,0.268,5.027,4.332,5.456v1.872H168.278z"/>
	<path fill="#FFFFFF" d="M221.945,181.062c-2.835,0.161-3.984,0.884-4.252,2.783c-0.161,1.497-0.349,3.396-0.349,7.568v4.759
		c0,5.641-0.855,9.976-3.716,12.994c-2.247,2.409-5.643,3.559-9.039,3.559c-3.128,0-6.123-0.668-8.423-2.54
		c-2.861-2.248-4.225-5.963-4.225-11.873v-12.276c0-4.383-0.427-4.705-4.279-4.974v-1.871h14.201v1.871
		c-3.772,0.269-4.227,0.591-4.227,4.974v11.341c0,7.889,2.915,12.005,8.451,12.005c6.123,0,8.69-4.838,8.69-13.263v-4.705
		c0-4.12-0.213-6.071-0.427-7.621c-0.268-1.794-1.417-2.516-4.947-2.73v-1.871h12.541V181.062z"/>
	<path fill="#FFFFFF" d="M260.717,181.009c-2.729,0.16-3.823,0.883-4.092,2.89c-0.214,1.551-0.375,3.902-0.375,8.343v20.191h-2.38
		l-20.188-25.354h-0.108v11.712c0,4.281,0.213,6.689,0.374,8.187c0.214,2.244,1.312,2.994,4.761,3.155v1.871h-12.328v-1.871
		c2.809-0.161,4.011-0.911,4.225-3.049c0.215-1.604,0.429-4.012,0.429-8.293v-10.775c0-3.395-0.053-4.008-0.963-5.212
		c-0.936-1.204-2.14-1.58-4.278-1.794v-1.819h8.53l19.172,23.346h0.161v-10.294c0-4.44-0.213-6.792-0.373-8.289
		c-0.268-2.008-1.419-2.729-4.868-2.943v-1.819h12.302V181.009z"/>
	<path fill="#FFFFFF" d="M265.822,212.003v-1.872c3.822-0.321,4.332-0.643,4.332-4.813v-19.44c0-4.227-0.51-4.548-4.332-4.815
		v-1.872h14.225v1.872c-3.823,0.268-4.278,0.589-4.278,4.815v19.44c0,4.223,0.455,4.491,4.278,4.813v1.872H265.822z"/>
	<path fill="#FFFFFF" d="M315.983,203.578c-0.694,2.355-1.924,6.07-2.726,7.889c-1.365,0.269-5.697,1.259-9.2,1.259
		c-12.647,0-18.024-8.611-18.024-16.661c0-10.562,7.89-17.621,19.281-17.621c3.877,0,7.327,0.961,8.745,1.311
		c0.454,2.78,0.775,4.974,1.041,8.046l-1.896,0.375c-1.553-5.641-4.653-7.484-9.094-7.484c-7.353,0-11.497,6.764-11.497,14.331
		c0,9.2,5.08,15.402,11.872,15.402c4.387,0,7.061-2.541,9.574-7.62L315.983,203.578z"/>
	<path fill="#FFFFFF" d="M321.09,212.003v-1.872c3.822-0.321,4.331-0.643,4.331-4.813v-19.44c0-4.227-0.509-4.548-4.331-4.815
		v-1.872h14.225v1.872c-3.823,0.268-4.278,0.589-4.278,4.815v19.44c0,4.223,0.455,4.491,4.278,4.813v1.872H321.09z"/>
	<path fill="#FFFFFF" d="M354.914,179.19c3.852,0,6.578,0.563,8.664,2.032c2.138,1.473,3.503,4.013,3.503,7.274
		c0,6.685-4.92,9.868-10.081,10.483c-0.75,0.106-1.579,0.106-2.14,0.106l-3.503-0.936v7.221c0,4.223,0.456,4.491,4.893,4.812v1.819
		h-14.732v-1.819c3.822-0.32,4.332-0.695,4.332-4.812v-19.444c0-4.33-0.51-4.598-4.013-4.865v-1.872H354.914z M351.357,196.118
		c0.668,0.268,1.872,0.561,3.182,0.561c2.408,0,6.365-1.551,6.365-7.942c0-5.534-3.396-7.514-6.792-7.514
		c-1.097,0-1.926,0.16-2.192,0.482c-0.375,0.347-0.563,0.882-0.563,1.926V196.118z"/>
	<path fill="#FFFFFF" d="M386.868,212.004v-1.872c2.968-0.43,3.289-0.858,2.62-2.941c-0.587-1.604-1.364-3.905-2.192-6.153h-9.947
		c-0.615,1.605-1.256,3.398-1.819,5.429c-0.829,2.7-0.588,3.236,3.023,3.666v1.872H367.32v-1.872
		c3.289-0.43,3.932-0.805,5.588-5.081l10.081-26.019l2.355-0.59c3.048,8.529,6.283,17.997,9.466,26.501
		c1.523,4.33,2.192,4.813,5.48,5.188v1.872H386.868z M382.482,186.653h-0.161c-1.416,3.93-2.781,7.885-4.171,11.712h8.289
		L382.482,186.653z"/>
	<path fill="#FFFFFF" d="M430.479,203.632c-0.347,1.954-1.39,6.953-1.816,8.371h-23.56v-1.872c4.172-0.321,4.681-0.643,4.681-4.813
		v-19.44c0-4.226-0.509-4.548-4.386-4.816v-1.872h14.387v1.872c-3.932,0.269-4.386,0.591-4.386,4.816v19.494
		c0,2.458,0.24,3.448,1.283,3.901c0.856,0.429,2.354,0.536,4.092,0.536c2.245,0,4.011-0.268,5.16-1.58
		c0.856-1.039,1.792-2.644,2.621-5.052L430.479,203.632z"/>
	<rect y="249.854" fill="#EB0029" width="31.708" height="5.487"/>
	<rect x="400.292" y="249.854" fill="#EB0029" width="31.708" height="5.487"/>
	<path fill="#FFFFFF" d="M58.047,235.978c6.31,0,11.017,1.2,14.252,4.33c2.407,2.354,4.225,6.017,4.225,10.775
		c0,6.153-2.299,10.591-6.151,13.478c-3.608,2.916-8.637,4.227-14.84,4.227H43.313v-1.872c4.064-0.321,4.547-0.59,4.547-4.813
		v-19.44c0-4.227-0.429-4.548-4.091-4.813v-1.872H58.047z M53.554,261.835c0,3.555,1.097,4.705,4.6,4.705
		c7.514,0,11.953-5.909,11.953-14.628c0-4.865-1.577-8.981-4.546-11.176c-2.087-1.847-4.813-2.676-8.05-2.676
		c-1.924,0-2.967,0.321-3.396,0.672c-0.427,0.425-0.561,1.147-0.561,2.726V261.835z"/>
	<path fill="#FFFFFF" d="M101.07,235.28c8.638,0,15.991,6.607,15.991,16.739c0,10.966-7.46,17.49-16.607,17.49
		c-9.359,0-16.259-7.192-16.259-16.982c0-8.822,6.017-17.247,16.822-17.247H101.07z M100.027,237.393
		c-5.054,0-9.252,5.216-9.252,13.987c0,8.875,4.145,15.936,10.615,15.936c4.922,0,9.039-4.599,9.039-13.906
		c0-10.186-4.492-16.017-10.348-16.017H100.027z"/>
	<path fill="#FFFFFF" d="M149.628,268.787v-1.872c3.959-0.429,4.12-0.643,4.066-5.456l-0.107-19.946h-0.161l-11.285,26.899h-1.497
		l-10.295-26.286h-0.215l-0.587,13.745c-0.242,4.198-0.242,6.393-0.108,8.05c0.161,2.247,1.256,2.673,4.6,2.94v1.926h-12.06v-1.926
		c2.78-0.268,3.716-0.854,4.064-2.833c0.322-1.658,0.588-4.066,0.963-9.093l0.776-10.508c0.426-5.803,0.107-6.206-4.279-6.578
		v-1.872h9.708l10.027,23.131l10.295-23.131h9.627v1.872c-4.173,0.372-4.332,0.532-4.226,5.026l0.455,18.583
		c0.107,4.813,0.268,5.027,4.332,5.456v1.872H149.628z"/>
	<path fill="#FFFFFF" d="M169.415,268.787v-1.872c3.823-0.321,4.332-0.643,4.332-4.813v-19.44c0-4.227-0.509-4.548-4.332-4.813
		v-1.872h14.225v1.872c-3.823,0.265-4.278,0.586-4.278,4.813v19.44c0,4.223,0.455,4.491,4.278,4.813v1.872H169.415z"/>
	<path fill="#FFFFFF" d="M223.776,237.796c-2.729,0.161-3.825,0.883-4.091,2.887c-0.215,1.552-0.375,3.905-0.375,8.344v20.189
		h-2.381l-20.188-25.35h-0.108v11.712c0,4.276,0.215,6.685,0.374,8.182c0.214,2.248,1.311,2.994,4.761,3.155v1.872H189.44v-1.872
		c2.809-0.161,4.011-0.907,4.225-3.048c0.215-1.604,0.429-4.013,0.429-8.289v-10.776c0-3.396-0.053-4.012-0.963-5.216
		c-0.936-1.204-2.14-1.579-4.278-1.79v-1.819h8.53l19.172,23.347h0.161v-10.297c0-4.438-0.213-6.792-0.373-8.29
		c-0.268-2.004-1.419-2.729-4.868-2.94v-1.819h12.301V237.796z"/>
	<path fill="#FFFFFF" d="M228.882,268.787v-1.872c3.823-0.321,4.332-0.643,4.332-4.813v-19.44c0-4.227-0.509-4.548-4.332-4.813
		v-1.872h14.225v1.872c-3.822,0.265-4.277,0.586-4.277,4.813v19.44c0,4.223,0.455,4.491,4.277,4.813v1.872H228.882z"/>
	<path fill="#FFFFFF" d="M279.044,260.362c-0.695,2.355-1.925,6.07-2.727,7.889c-1.365,0.269-5.697,1.259-9.2,1.259
		c-12.647,0-18.023-8.611-18.023-16.661c0-10.562,7.889-17.621,19.28-17.621c3.878,0,7.327,0.964,8.745,1.311
		c0.454,2.78,0.775,4.974,1.041,8.05l-1.896,0.371c-1.55-5.641-4.653-7.484-9.093-7.484c-7.354,0-11.497,6.764-11.497,14.331
		c0,9.2,5.08,15.402,11.872,15.402c4.386,0,7.06-2.541,9.573-7.621L279.044,260.362z"/>
	<path fill="#FFFFFF" d="M302.763,268.787v-1.871c2.967-0.43,3.289-0.854,2.62-2.941c-0.587-1.604-1.364-3.905-2.193-6.153h-9.947
		c-0.614,1.605-1.256,3.398-1.818,5.432c-0.829,2.7-0.588,3.233,3.022,3.663v1.871h-11.231v-1.871
		c3.289-0.43,3.931-0.802,5.588-5.081l10.081-26.019l2.354-0.59c3.048,8.533,6.283,17.997,9.466,26.501
		c1.524,4.334,2.192,4.813,5.481,5.188v1.871H302.763z M298.377,243.438h-0.161c-1.416,3.93-2.779,7.889-4.171,11.712h8.288
		L298.377,243.438z"/>
	<path fill="#FFFFFF" d="M355.278,237.796c-2.728,0.161-3.823,0.883-4.091,2.887c-0.214,1.552-0.375,3.905-0.375,8.344v20.189h-2.38
		l-20.188-25.35h-0.107v11.712c0,4.276,0.213,6.685,0.374,8.182c0.214,2.248,1.311,2.994,4.761,3.155v1.872h-12.329v-1.872
		c2.81-0.161,4.011-0.907,4.225-3.048c0.216-1.604,0.43-4.013,0.43-8.289v-10.776c0-3.396-0.054-4.012-0.963-5.216
		c-0.937-1.204-2.141-1.579-4.278-1.79v-1.819h8.53l19.172,23.347h0.161v-10.297c0-4.438-0.213-6.792-0.373-8.29
		c-0.269-2.004-1.419-2.729-4.868-2.94v-1.819h12.301V237.796z"/>
	<path fill="#FFFFFF" d="M376.909,268.787v-1.871c2.967-0.43,3.289-0.854,2.62-2.941c-0.587-1.604-1.364-3.905-2.193-6.153h-9.947
		c-0.614,1.605-1.256,3.398-1.818,5.432c-0.829,2.7-0.588,3.233,3.022,3.663v1.871h-11.231v-1.871
		c3.289-0.43,3.931-0.802,5.588-5.081l10.081-26.019l2.354-0.59c3.048,8.533,6.283,17.997,9.466,26.501
		c1.524,4.334,2.192,4.813,5.481,5.188v1.871H376.909z M372.523,243.438h-0.161c-1.416,3.93-2.781,7.889-4.171,11.712h8.289
		L372.523,243.438z"/>
</g>
</svg>