<?xml version="1.0" encoding="UTF-8"?>
<svg id="Capa_1" data-name="Capa 1" xmlns="http://www.w3.org/2000/svg" version="1.1" xmlns:xlink="http://www.w3.org/1999/xlink" viewBox="0 0 616 136">
  <defs>
    <style>
      .cls-1 {
        fill: url(#Degradado_sin_nombre_14);
        stroke: #7f7f7f;
        stroke-miterlimit: 10;
        stroke-width: 2px;
      }

      .cls-2 {
        fill: #fff;
        stroke-width: 0px;
      }
    </style>
    <linearGradient id="Degradado_sin_nombre_14" data-name="Degradado sin nombre 14" x1="-1.4" y1="14.1" x2="81.5" y2="123.7" gradientUnits="userSpaceOnUse">
      <stop offset=".4" stop-color="#f9d226"/>
      <stop offset="1" stop-color="#e152aa"/>
    </linearGradient>
  </defs>
  <g>
    <path class="cls-2" d="M129.2,67.8h19.1c8.2,0,14.4,1.2,18.6,3.5,4.2,2.3,6.3,6.3,6.3,12.1s-.4,4.4-1.1,6.3c-.7,1.9-1.8,3.4-3.2,4.6-1.4,1.2-3.1,2-5.1,2.4v.4c2,.4,3.9,1.1,5.6,2.2s3,2.5,4,4.5c1,2,1.5,4.5,1.5,7.8s-.9,6.9-2.7,9.6c-1.8,2.7-4.4,4.7-7.8,6.1-3.4,1.4-7.4,2.1-12.1,2.1h-23v-61.5ZM142.3,92.2h7.6c3.8,0,6.4-.6,7.9-1.8,1.5-1.2,2.2-3,2.2-5.3s-.9-4-2.6-5.1c-1.7-1-4.5-1.5-8.2-1.5h-6.9v13.7ZM142.3,102.5v16h8.5c3.9,0,6.7-.8,8.2-2.3,1.5-1.5,2.3-3.5,2.3-6.1s-.3-2.8-1-4c-.7-1.1-1.8-2-3.4-2.7-1.6-.6-3.8-1-6.5-1h-8.1Z"/>
    <path class="cls-2" d="M205.4,81.3c6.3,0,11.2,1.4,14.5,4.1,3.4,2.7,5,6.9,5,12.5v31.4h-9l-2.5-6.4h-.3c-1.3,1.7-2.7,3.1-4.1,4.1s-3,1.9-4.8,2.4c-1.8.5-4,.8-6.6.8s-5.3-.5-7.5-1.6c-2.2-1.1-3.9-2.7-5.2-4.9-1.3-2.2-1.9-5-1.9-8.4,0-5,1.8-8.7,5.3-11,3.5-2.4,8.8-3.7,15.8-3.9l8.2-.3v-2.1c0-2.5-.6-4.3-1.9-5.4-1.3-1.2-3.1-1.7-5.4-1.7s-4.5.3-6.7,1c-2.2.6-4.4,1.5-6.6,2.4l-4.3-8.7c2.5-1.3,5.3-2.4,8.4-3.1,3.1-.8,6.3-1.1,9.6-1.1ZM212.2,107.5l-5,.2c-4.2.1-7,.9-8.6,2.2-1.6,1.4-2.4,3.2-2.4,5.4s.6,3.4,1.7,4.2c1.1.8,2.7,1.2,4.5,1.2,2.7,0,5.1-.8,7-2.4,1.9-1.6,2.8-3.9,2.8-6.9v-3.9Z"/>
    <path class="cls-2" d="M271,115.4c0,3.2-.8,5.9-2.3,8.1-1.5,2.2-3.7,3.9-6.7,5-3,1.1-6.7,1.7-11.1,1.7s-6.1-.2-8.4-.6c-2.3-.4-4.7-1.1-7.1-2.1v-10.6c2.6,1.2,5.3,2.1,8.2,2.8,2.9.7,5.5,1.1,7.7,1.1s4.3-.4,5.4-1.1c1.1-.7,1.6-1.7,1.6-2.9s-.2-1.5-.7-2.1c-.4-.6-1.4-1.3-2.8-2.1-1.4-.8-3.7-1.8-6.7-3.1-2.9-1.2-5.4-2.5-7.3-3.7-1.9-1.3-3.3-2.8-4.2-4.5-.9-1.7-1.4-3.9-1.4-6.6,0-4.3,1.7-7.6,5.1-9.8,3.4-2.2,7.9-3.3,13.6-3.3s5.7.3,8.4.9c2.7.6,5.4,1.5,8.2,2.8l-3.9,9.3c-2.3-1-4.5-1.8-6.6-2.5s-4.2-1-6.3-1-3.3.3-4.3.8c-1,.5-1.4,1.3-1.4,2.3s.2,1.4.7,2c.5.6,1.4,1.2,2.9,2,1.4.7,3.5,1.6,6.2,2.8,2.7,1.1,5,2.2,6.9,3.4,2,1.2,3.5,2.7,4.5,4.4,1.1,1.8,1.6,4,1.6,6.8Z"/>
    <path class="cls-2" d="M300.4,81.4c4.3,0,8.1.8,11.2,2.5,3.1,1.7,5.6,4.1,7.3,7.3,1.7,3.2,2.6,7,2.6,11.6v6.2h-30.3c.1,3.6,1.2,6.5,3.3,8.5s4.9,3.1,8.5,3.1,5.8-.3,8.2-.9c2.5-.6,5.1-1.5,7.7-2.8v9.9c-2.3,1.2-4.8,2-7.3,2.5-2.5.5-5.6.8-9.2.8s-8.9-.9-12.5-2.6c-3.6-1.7-6.5-4.4-8.5-8-2.1-3.6-3.1-8.1-3.1-13.5s.9-10.1,2.8-13.7c1.9-3.7,4.5-6.4,7.8-8.2,3.3-1.8,7.2-2.8,11.7-2.8ZM300.5,90.5c-2.5,0-4.6.8-6.2,2.4-1.6,1.6-2.6,4.1-2.8,7.5h18c0-1.9-.4-3.6-1-5.1-.7-1.5-1.6-2.7-2.9-3.5-1.3-.9-3-1.3-5-1.3Z"/>
    <path class="cls-2" d="M356.7,129.3h-13v-50.7h-16.7v-10.9h46.5v10.9h-16.7v50.7Z"/>
    <path class="cls-2" d="M394.7,63.9v13.3c0,2.3,0,4.5-.2,6.6s-.3,3.6-.4,4.5h.7c1-1.6,2.2-2.9,3.6-4s2.9-1.8,4.6-2.2c1.7-.5,3.5-.7,5.4-.7,3.4,0,6.4.6,8.9,1.8,2.5,1.2,4.5,3.1,5.9,5.6s2.1,5.8,2.1,9.9v30.7h-12.8v-27.5c0-3.4-.6-5.9-1.9-7.6s-3.1-2.6-5.7-2.6-4.6.6-6.1,1.8c-1.5,1.2-2.5,2.9-3.2,5.3s-.9,5.1-.9,8.5v22.1h-12.8V63.9h12.8Z"/>
    <path class="cls-2" d="M457.9,81.4c4.3,0,8.1.8,11.2,2.5,3.1,1.7,5.6,4.1,7.3,7.3,1.7,3.2,2.6,7,2.6,11.6v6.2h-30.3c.1,3.6,1.2,6.5,3.3,8.5s4.9,3.1,8.5,3.1,5.8-.3,8.2-.9c2.5-.6,5.1-1.5,7.7-2.8v9.9c-2.3,1.2-4.8,2-7.3,2.5-2.5.5-5.6.8-9.2.8s-8.9-.9-12.5-2.6c-3.6-1.7-6.5-4.4-8.5-8-2.1-3.6-3.1-8.1-3.1-13.5s.9-10.1,2.8-13.7c1.9-3.7,4.5-6.4,7.8-8.2,3.3-1.8,7.2-2.8,11.7-2.8ZM458,90.5c-2.5,0-4.6.8-6.2,2.4-1.6,1.6-2.6,4.1-2.8,7.5h18c0-1.9-.4-3.6-1-5.1-.7-1.5-1.6-2.7-2.9-3.5-1.3-.9-3-1.3-5-1.3Z"/>
    <path class="cls-2" d="M544.6,81.4c5.3,0,9.4,1.4,12.1,4.1,2.7,2.7,4.1,7.1,4.1,13.2v30.7h-12.9v-27.5c0-3.4-.6-5.9-1.7-7.6-1.2-1.7-2.9-2.6-5.3-2.6s-5.8,1.2-7.2,3.6c-1.4,2.4-2.1,5.9-2.1,10.4v23.6h-12.8v-27.5c0-2.2-.3-4.1-.8-5.6-.5-1.5-1.3-2.7-2.3-3.4-1-.8-2.4-1.1-4-1.1-2.4,0-4.3.6-5.6,1.8-1.4,1.2-2.3,2.9-2.9,5.3-.6,2.3-.9,5.1-.9,8.5v22.1h-12.8v-47h9.8l1.7,6h.7c1-1.6,2.2-2.9,3.6-4,1.4-1,3-1.8,4.8-2.2,1.7-.5,3.5-.7,5.3-.7,3.5,0,6.4.6,8.8,1.7,2.4,1.1,4.2,2.9,5.5,5.2h1.1c1.4-2.4,3.4-4.2,6-5.3,2.6-1.1,5.2-1.6,7.9-1.6Z"/>
    <path class="cls-2" d="M593.4,81.4c4.3,0,8.1.8,11.2,2.5,3.1,1.7,5.6,4.1,7.3,7.3,1.7,3.2,2.6,7,2.6,11.6v6.2h-30.3c.1,3.6,1.2,6.5,3.3,8.5s4.9,3.1,8.5,3.1,5.8-.3,8.2-.9c2.5-.6,5.1-1.5,7.7-2.8v9.9c-2.3,1.2-4.8,2-7.3,2.5-2.5.5-5.6.8-9.2.8s-8.9-.9-12.5-2.6c-3.6-1.7-6.5-4.4-8.5-8-2.1-3.6-3.1-8.1-3.1-13.5s.9-10.1,2.8-13.7c1.9-3.7,4.5-6.4,7.8-8.2,3.3-1.8,7.2-2.8,11.7-2.8ZM593.5,90.5c-2.5,0-4.6.8-6.2,2.4-1.6,1.6-2.6,4.1-2.8,7.5h18c0-1.9-.4-3.6-1-5.1-.7-1.5-1.6-2.7-2.9-3.5-1.3-.9-3-1.3-5-1.3Z"/>
  </g>
  <path class="cls-1" d="M95,62.9c-1.6-3.1-3.8-5.8-5.7-8.7-1.4,6.2-2,11.9-3.9,17.1-3.7,10-10.2,17.8-21.1,20.6-6.2,1.6-12.3-3.5-11.4-9.9.4-3.2,2.2-6.3,3.9-9.1,1.7-2.8,4-5.1,6-7.7,16.7-21.5,8.5-47.7-14.6-63.3,0,1-.2,1.6-.2,2.2-.2,11.9-4.8,21.8-13.6,29.7-5.3,4.7-10.6,9.5-16,14.2C1.2,62.8-3.4,87.5,7.1,107.5c10.6,20.3,33.6,30.7,55.6,25.2,30.5-7.6,46.5-42,32.3-69.9Z"/>
</svg>