<?xml version="1.0" encoding="UTF-8"?>
<svg id="Capa_1" data-name="Capa 1" xmlns="http://www.w3.org/2000/svg" version="1.1" xmlns:xlink="http://www.w3.org/1999/xlink" viewBox="0 0 187 251">
  <defs>
    <style>
      .cls-1 {
        fill: url(#Degradado_sin_nombre_14);
        stroke: #7f7f7f;
        stroke-miterlimit: 10;
        stroke-width: 2px;
      }
    </style>
    <linearGradient id="Degradado_sin_nombre_14" data-name="Degradado sin nombre 14" x1="-2.6" y1="26.4" x2="149.9" y2="227.9" gradientUnits="userSpaceOnUse">
      <stop offset=".4" stop-color="#f9d226"/>
      <stop offset="1" stop-color="#e152aa"/>
    </linearGradient>
  </defs>
  <path class="cls-1" d="M174.6,116.1c-2.9-5.7-7-10.7-10.5-16-2.5,11.3-3.7,21.8-7.2,31.4-6.9,18.4-18.8,32.7-38.8,37.8-11.5,2.9-22.5-6.4-20.9-18.2.8-5.8,4.1-11.5,7.2-16.7,3-5.1,7.4-9.4,11-14.2,30.8-39.6,15.7-87.7-26.9-116.4-.2,1.9-.3,2.9-.4,4-.4,21.8-8.8,40-25,54.5-9.8,8.7-19.6,17.4-29.4,26C2.3,116-6.2,161.3,13,198.1c19.5,37.3,61.7,56.4,102.2,46.3,56.1-14,85.4-77.1,59.4-128.4Z"/>
</svg>